<svg xmlns="http://www.w3.org/2000/svg" width="66" height="16" viewBox="0 0 66 16">
    <path fill="#fff" d="M8.025 0c4.425 0 8.025 3.589 8.025 8s-3.6 8-8.025 8C3.6 16 0 12.411 0 8s3.6-8 8.025-8zm50.438.005c2.37 0 4.607 1.039 6.135 2.85l.227.268-.293.194-2.592 1.724-.217.144-.182-.186c-.82-.835-1.913-1.224-3.078-1.224-2.375 0-4.308 1.855-4.308 4.223s1.933 4.295 4.308 4.295c2.009 0 3.34-1.131 3.602-2.392h-3.276V7.039h7.148c.018.2.04.516.055.96.027.744-.013 1.2-.163 2.098-.608 3.635-3.43 5.894-7.366 5.894-4.42 0-8.017-3.585-8.017-7.993 0-4.407 3.596-7.993 8.017-7.993zM41.626.003c2.37 0 4.607 1.039 6.135 2.85l.226.268-.292.194-2.593 1.724-.216.144-.182-.186c-.82-.835-1.912-1.224-3.078-1.224-2.375 0-4.308 1.855-4.308 4.224 0 2.367 1.933 4.294 4.308 4.294 2.009 0 3.34-1.13 3.602-2.392h-3.276V7.037H49.1c.018.2.04.516.055.96.027.744-.013 1.2-.163 2.098-.608 3.635-3.43 5.894-7.366 5.894-4.42 0-8.017-3.585-8.017-7.992 0-4.408 3.597-7.994 8.017-7.994zm-16.066 0c3.38 0 5.736 2.657 5.736 6.096 0 3.458-2.478 6.096-5.736 6.096h-4.38v3.792h-3.6V.003zm5.736 12.74c.897 0 1.627.728 1.627 1.622 0 .894-.73 1.622-1.627 1.622s-1.627-.728-1.627-1.622c0-.894.73-1.622 1.627-1.622zM8.026 3.796C5.7 3.796 3.807 5.682 3.807 8c0 2.318 1.892 4.203 4.217 4.203 2.325 0 4.216-1.885 4.216-4.203 0-2.318-1.891-4.204-4.216-4.204zm17.516-.095H21.18v4.797h4.362c1.505 0 1.964-1.382 1.964-2.399 0-.986-.46-2.398-1.964-2.398z"/>
</svg>
